<svg version="1.1" id="Layer_1" xmlns="http://www.w3.org/2000/svg" xmlns:xlink="http://www.w3.org/1999/xlink" x="0px" y="0px"
	  viewBox="0 0 280 280" enable-background="new 0 0 280 280" xml:space="preserve">
<path fill="#fefeff00" opacity="1.000000" stroke="none" 
	d="
M154.000000,281.000000 
	C102.666664,281.000000 51.833332,281.000000 1.000000,281.000000 
	C1.000000,187.666672 1.000000,94.333336 1.000000,1.000000 
	C94.333336,1.000000 187.666672,1.000000 281.000000,1.000000 
	C281.000000,94.333336 281.000000,187.666672 281.000000,281.000000 
	C238.833328,281.000000 196.666672,281.000000 154.000000,281.000000 
M174.903564,97.088234 
	C174.903564,97.088234 174.768723,97.118355 174.568405,96.581917 
	C174.073151,96.341301 173.577896,96.100685 173.010468,95.987129 
	C173.010468,95.987129 173.107773,95.878105 172.794037,95.287369 
	C170.604675,94.142136 168.415314,92.996910 166.114410,91.918831 
	C166.114410,91.918831 166.144501,91.792160 165.724106,91.255302 
	C162.956696,90.032196 160.296448,87.541359 157.196213,90.810242 
	C156.905930,91.116325 155.465790,90.331879 154.479584,89.302139 
	C153.776169,88.631371 153.123932,87.457870 152.360168,87.380157 
	C149.608704,87.100151 146.819656,87.189568 143.410797,87.073830 
	C142.629593,87.339195 141.848373,87.604561 140.590698,87.201492 
	C136.014709,88.081459 131.438721,88.961418 126.144493,89.979248 
	C123.082207,91.940491 120.019920,93.901741 116.320366,96.162834 
	C113.612152,98.165237 110.903938,100.167648 107.615166,102.293564 
	C107.328293,102.783707 107.041420,103.273849 106.998230,103.933456 
	C106.998230,103.933456 106.741821,103.784775 106.227753,103.921745 
	C106.047813,104.219292 105.867867,104.516846 105.358704,105.071976 
	C105.149994,105.258415 104.963287,105.464767 104.282722,105.865532 
	C104.117737,106.170052 103.952751,106.474571 103.776115,106.806091 
	C103.776115,106.806091 103.749641,106.783279 103.113312,107.010735 
	C90.423660,120.166245 85.725143,144.807785 93.042587,155.486496 
	C93.042587,150.931549 92.925484,145.463348 93.126839,140.006912 
	C93.175743,138.681473 93.976715,136.974335 95.002052,136.251572 
	C95.594955,135.833618 97.326561,137.031036 98.750954,137.580658 
	C100.319046,134.591537 102.525452,131.465302 103.675186,127.989525 
	C106.990341,117.967506 112.889664,110.018127 121.588272,104.159065 
	C124.936646,101.903717 128.512253,99.985695 132.819443,97.971764 
	C134.211151,97.967155 135.602859,97.962547 137.518234,98.024071 
	C137.684280,97.965851 137.850311,97.907623 138.747162,97.918556 
	C139.478729,97.877518 140.210312,97.836487 141.842117,97.959694 
	C146.545792,98.389191 151.249451,98.818680 156.356369,99.630424 
	C156.900360,99.717728 157.444366,99.805038 158.427124,100.418709 
	C169.794006,105.721733 177.440079,114.391418 181.327606,126.254929 
	C181.896423,127.990738 181.145996,130.158829 180.342285,131.815903 
	C178.025940,129.217148 179.354355,123.809372 175.362427,123.417885 
	C173.178833,126.758690 171.514969,129.304306 169.361893,132.252899 
	C169.595779,133.167755 169.829666,134.082626 169.955322,135.488144 
	C169.985489,135.652878 170.015671,135.817627 169.938492,136.797562 
	C169.392990,147.438690 164.945908,155.941086 156.127304,162.067352 
	C155.946899,162.192719 156.000534,162.654938 155.992203,163.000427 
	C155.992203,163.000427 155.986008,162.938599 155.350693,162.700714 
	C154.914398,162.814484 154.478088,162.928238 153.593704,162.945068 
	C153.593704,162.945068 153.143112,162.860504 152.942398,162.135101 
	C151.786331,161.886154 150.597626,161.320724 149.479156,161.436127 
	C134.689377,162.962189 123.462006,155.371063 125.000931,139.401947 
	C125.138031,137.979233 124.357147,136.468063 123.970016,134.194717 
	C123.083069,129.999329 126.092812,128.559067 129.644455,126.717514 
	C136.573624,121.363258 145.219727,120.187981 152.395538,123.038757 
	C158.200516,125.344948 156.488586,121.084282 158.703384,119.804413 
	C159.110458,119.813095 159.517517,119.821777 160.478210,119.979698 
	C160.667648,119.954407 160.857101,119.929108 161.689987,120.210159 
	C163.308487,120.760147 164.926987,121.310127 167.499130,122.184174 
	C161.691803,112.155663 153.984283,106.856865 143.513855,105.938728 
	C139.395309,105.577576 135.214523,105.926369 131.361389,105.367279 
	C132.150146,104.897636 132.938919,104.427994 133.727676,103.958359 
	C125.006264,105.546219 117.654892,109.207588 112.710182,117.606125 
	C105.650902,126.573723 104.320786,137.005920 104.212776,147.999313 
	C102.147171,146.722229 100.081566,145.445129 97.670959,143.954758 
	C99.183464,160.422775 107.516953,172.367813 121.734047,179.575607 
	C136.985703,187.307877 152.431793,187.063477 167.620697,176.750198 
	C170.398010,174.488266 173.175323,172.226349 176.579773,169.914337 
	C176.884384,169.817459 177.184906,169.700409 177.496368,169.637405 
	C177.577911,169.620880 177.790924,169.795822 177.779480,169.843170 
	C176.877426,173.576645 175.958984,177.306168 174.657883,181.032623 
	C174.642593,181.218460 174.627289,181.404297 174.612000,181.590134 
	C174.733078,181.380966 174.854156,181.171799 175.631683,180.800064 
	C177.122650,179.509247 178.796310,178.376877 180.075287,176.902206 
	C189.235718,166.340347 192.596527,153.844284 192.740173,139.560349 
	C192.404755,135.046906 192.069351,130.533478 192.167816,125.654961 
	C193.433640,119.171677 190.126068,114.302185 186.181732,108.939850 
	C182.758163,105.308464 179.334595,101.677071 175.777420,97.577454 
	C175.582489,97.255737 175.301834,97.137474 174.903564,97.088234 
M207.495209,63.028286 
	C205.729279,61.275288 204.150467,59.267998 202.168030,57.809223 
	C185.162033,45.295349 165.961197,40.879452 145.185623,43.060669 
	C143.308517,43.257744 140.776825,45.461037 140.132294,47.290432 
	C139.076996,50.285706 141.361542,52.180809 144.327408,52.866684 
	C160.990463,56.720139 176.428986,63.612873 191.290512,71.889420 
	C205.289215,79.685455 216.758377,89.515129 221.739853,105.767441 
	C227.062469,123.132751 230.616089,140.298294 226.099304,158.497238 
	C222.454330,173.183517 217.131866,186.970963 208.648514,199.550247 
	C207.677429,200.990189 208.114883,203.380005 207.899231,205.329407 
	C209.818695,204.982300 212.149918,205.202194 213.571701,204.169739 
	C216.506439,202.038574 219.092743,199.366699 221.581268,196.692841 
	C230.832718,186.752518 239.083466,176.023499 241.949600,162.446518 
	C247.683655,135.284119 242.038544,110.150208 226.602859,87.312576 
	C220.976456,78.988098 214.270889,71.393021 207.495209,63.028286 
M59.032825,166.362091 
	C58.070148,158.635727 56.036125,150.865891 56.347569,143.191223 
	C57.248005,121.002419 64.191612,100.573151 76.259521,81.831184 
	C77.541260,79.840591 76.646797,76.448761 76.761917,73.706978 
	C74.160233,74.102852 71.038002,73.708138 69.041290,75.022835 
	C56.026955,83.591835 48.375519,96.662849 42.254032,110.307968 
	C33.334778,130.189438 35.932476,150.561081 44.616371,169.662521 
	C52.330044,186.629837 63.281948,202.058594 76.433350,215.243439 
	C92.826202,231.678009 113.094833,239.442154 136.715103,236.146362 
	C138.206253,235.938293 139.527847,234.515015 140.928314,233.657089 
	C139.589661,232.457184 138.443512,230.692917 136.877731,230.158859 
	C131.258728,228.242218 125.497826,226.741577 119.525047,225.006561 
	C120.360222,224.311188 120.829803,223.920212 120.667458,224.055389 
	C109.955177,218.686798 98.883942,213.323761 88.011101,207.584854 
	C84.392143,205.674698 81.075417,203.036606 77.977028,200.324081 
	C67.887634,191.491165 61.623745,180.399063 59.032825,166.362091 
M101.551918,205.608154 
	C108.260658,208.423752 114.886383,211.460846 121.694038,214.012543 
	C140.467758,221.049377 158.831482,221.408951 176.867462,211.084457 
	C188.530792,204.407959 196.489899,195.004959 200.969742,182.501663 
	C201.423996,181.233780 201.252579,179.741730 201.413986,177.858398 
	C199.786972,178.195068 198.696075,178.132523 197.974365,178.618408 
	C194.202240,181.157883 190.634995,184.014465 186.783920,186.420517 
	C182.261719,189.245880 177.696976,192.117950 172.841217,194.272186 
	C160.318558,199.827728 147.174393,202.976776 133.417206,203.497147 
	C123.431152,203.874863 113.844322,202.115463 106.546936,195.163437 
	C94.750916,183.925720 83.694778,171.903290 75.627861,157.539413 
	C74.025505,154.686295 71.619606,152.739471 68.860435,154.253464 
	C67.179855,155.175629 65.948051,158.380386 65.910866,160.583420 
	C65.734306,171.044067 71.036667,179.562057 76.269180,188.119888 
	C81.995918,197.486053 90.354385,202.849747 101.551918,205.608154 
M214.882431,124.981155 
	C214.604004,121.858521 212.916199,117.494362 214.343399,115.874214 
	C217.228745,112.598793 214.972946,110.688698 214.116974,108.271858 
	C213.121078,105.459969 211.962585,102.703987 210.823990,99.944649 
	C207.790833,92.593910 203.617737,85.736259 196.921799,81.538055 
	C189.579895,76.934860 181.439301,73.580467 173.561554,69.862404 
	C159.425797,63.190758 144.808121,59.681721 128.877823,60.852226 
	C109.276314,62.292492 85.156677,81.151901 80.526611,100.199600 
	C80.128372,101.837921 80.632790,104.997177 81.557434,105.370491 
	C83.215981,106.040108 85.693375,105.544930 87.493721,104.764290 
	C89.408005,103.934235 90.874290,102.123024 92.638885,100.886810 
	C100.643036,95.279388 108.229485,88.836906 116.851082,84.423424 
	C124.052635,80.736870 132.359818,78.841301 140.393463,77.230148 
	C154.650696,74.370888 168.830215,74.655762 180.479980,84.900192 
	C185.483521,89.300156 189.478607,94.980835 193.374115,100.475090 
	C199.014847,108.430817 204.209534,116.707024 209.462433,124.930878 
	C211.012009,127.356873 212.481903,127.842674 214.882431,124.981155 
z"/>
<path fill="#78797D" opacity="1.000000" stroke="none" 
	d="
M207.776428,63.246727 
	C214.270889,71.393021 220.976456,78.988098 226.602859,87.312576 
	C242.038544,110.150208 247.683655,135.284119 241.949600,162.446518 
	C239.083466,176.023499 230.832718,186.752518 221.581268,196.692841 
	C219.092743,199.366699 216.506439,202.038574 213.571701,204.169739 
	C212.149918,205.202194 209.818695,204.982300 207.899231,205.329407 
	C208.114883,203.380005 207.677429,200.990189 208.648514,199.550247 
	C217.131866,186.970963 222.454330,173.183517 226.099304,158.497238 
	C230.616089,140.298294 227.062469,123.132751 221.739853,105.767441 
	C216.758377,89.515129 205.289215,79.685455 191.290512,71.889420 
	C176.428986,63.612873 160.990463,56.720139 144.327408,52.866684 
	C141.361542,52.180809 139.076996,50.285706 140.132294,47.290432 
	C140.776825,45.461037 143.308517,43.257744 145.185623,43.060669 
	C165.961197,40.879452 185.162033,45.295349 202.168030,57.809223 
	C204.150467,59.267998 205.729279,61.275288 207.776428,63.246727 
z"/>
<path fill="#999A9B" opacity="1.000000" stroke="none" 
	d="
M59.100800,166.775391 
	C61.623745,180.399063 67.887634,191.491165 77.977028,200.324081 
	C81.075417,203.036606 84.392143,205.674698 88.011101,207.584854 
	C98.883942,213.323761 109.955177,218.686798 120.667458,224.055389 
	C120.829803,223.920212 120.360222,224.311188 119.525047,225.006561 
	C125.497826,226.741577 131.258728,228.242218 136.877731,230.158859 
	C138.443512,230.692917 139.589661,232.457184 140.928314,233.657089 
	C139.527847,234.515015 138.206253,235.938293 136.715103,236.146362 
	C113.094833,239.442154 92.826202,231.678009 76.433350,215.243439 
	C63.281948,202.058594 52.330044,186.629837 44.616371,169.662521 
	C35.932476,150.561081 33.334778,130.189438 42.254032,110.307968 
	C48.375519,96.662849 56.026955,83.591835 69.041290,75.022835 
	C71.038002,73.708138 74.160233,74.102852 76.761917,73.706985 
	C76.646797,76.448761 77.541260,79.840591 76.259521,81.831184 
	C64.191612,100.573151 57.248005,121.002419 56.347569,143.191223 
	C56.036125,150.865891 58.070148,158.635727 59.100800,166.775391 
z"/>
<path fill="#0537A2" opacity="1.000000" stroke="none" 
	d="
M101.181419,205.479492 
	C90.354385,202.849747 81.995918,197.486053 76.269180,188.119888 
	C71.036667,179.562057 65.734306,171.044067 65.910866,160.583420 
	C65.948051,158.380386 67.179855,155.175629 68.860435,154.253464 
	C71.619606,152.739471 74.025505,154.686295 75.627861,157.539413 
	C83.694778,171.903290 94.750916,183.925720 106.546936,195.163437 
	C113.844322,202.115463 123.431152,203.874863 133.417206,203.497147 
	C147.174393,202.976776 160.318558,199.827728 172.841217,194.272186 
	C177.696976,192.117950 182.261719,189.245880 186.783920,186.420517 
	C190.634995,184.014465 194.202240,181.157883 197.974365,178.618408 
	C198.696075,178.132523 199.786972,178.195068 201.413986,177.858398 
	C201.252579,179.741730 201.423996,181.233780 200.969742,182.501663 
	C196.489899,195.004959 188.530792,204.407959 176.867462,211.084457 
	C158.831482,221.408951 140.467758,221.049377 121.694038,214.012543 
	C114.886383,211.460846 108.260658,208.423752 101.181419,205.479492 
z"/>
<path fill="#C8C8C8" opacity="1.000000" stroke="none" 
	d="
M214.721527,125.360596 
	C212.481903,127.842674 211.012009,127.356873 209.462433,124.930878 
	C204.209534,116.707024 199.014847,108.430817 193.374115,100.475090 
	C189.478607,94.980835 185.483521,89.300156 180.479980,84.900192 
	C168.830215,74.655762 154.650696,74.370888 140.393463,77.230148 
	C132.359818,78.841301 124.052635,80.736870 116.851082,84.423424 
	C108.229485,88.836906 100.643036,95.279388 92.638885,100.886810 
	C90.874290,102.123024 89.408005,103.934235 87.493721,104.764290 
	C85.693375,105.544930 83.215981,106.040108 81.557434,105.370491 
	C80.632790,104.997177 80.128372,101.837921 80.526611,100.199600 
	C85.156677,81.151901 109.276314,62.292492 128.877823,60.852226 
	C144.808121,59.681721 159.425797,63.190758 173.561554,69.862404 
	C181.439301,73.580467 189.579895,76.934860 196.921799,81.538055 
	C203.617737,85.736259 207.790833,92.593910 210.823990,99.944649 
	C211.962585,102.703987 213.121078,105.459969 214.116974,108.271858 
	C214.972946,110.688698 217.228745,112.598793 214.343399,115.874214 
	C212.916199,117.494362 214.604004,121.858521 214.721527,125.360596 
z"/>
<path fill="#78797D" opacity="1.000000" stroke="none" 
	d="
M131.062073,105.951874 
	C135.214523,105.926369 139.395309,105.577576 143.513855,105.938728 
	C153.984283,106.856865 161.691803,112.155663 167.499130,122.184174 
	C164.926987,121.310127 163.308487,120.760147 161.316162,119.829361 
	C160.800552,119.193573 160.658737,118.938591 160.516937,118.683609 
	C160.319489,119.065895 160.122040,119.448181 159.924591,119.830460 
	C159.517517,119.821777 159.110458,119.813095 158.310547,119.422928 
	C152.277573,115.925316 146.692047,112.504539 139.919479,115.961464 
	C139.648148,116.099960 139.269913,116.029030 138.551910,116.028275 
	C124.799515,118.042107 114.904869,131.856735 115.938271,147.029495 
	C116.571999,156.334106 124.550545,165.771561 134.557770,169.053650 
	C145.335159,172.588348 155.487152,169.995346 162.053436,162.011658 
	C162.032257,161.997986 162.019455,162.045258 162.309326,161.953812 
	C163.083038,161.241135 163.566879,160.619919 164.318939,159.802094 
	C171.364502,153.823792 170.427032,145.456436 171.756699,137.874313 
	C171.846985,137.359512 170.646194,136.618301 170.045853,135.982391 
	C170.015671,135.817627 169.985489,135.652878 170.317581,135.221100 
	C170.403610,133.919342 170.127365,132.884628 169.851120,131.849930 
	C171.514969,129.304306 173.178833,126.758690 175.362427,123.417885 
	C179.354355,123.809372 178.025940,129.217148 180.673340,132.382629 
	C180.748627,135.060410 179.875793,137.322632 180.349258,139.255035 
	C181.963760,145.844849 180.019257,151.726944 177.243164,157.409180 
	C175.451508,161.076416 173.036057,164.438919 170.621826,168.075211 
	C169.243439,169.158768 168.143387,170.105118 166.749268,171.227951 
	C162.233841,173.666229 158.222382,176.536057 153.752869,178.078873 
	C138.702682,183.273972 125.959785,178.821136 114.579948,168.267639 
	C108.509506,162.637985 107.230698,155.148712 104.955536,147.940414 
	C104.320786,137.005920 105.650902,126.573723 113.254868,117.282181 
	C119.553734,113.289452 125.307899,109.620659 131.062073,105.951874 
z"/>
<path fill="#9A9C9E" opacity="1.000000" stroke="none" 
	d="
M170.900162,167.937988 
	C173.036057,164.438919 175.451508,161.076416 177.243164,157.409180 
	C180.019257,151.726944 181.963760,145.844849 180.349258,139.255035 
	C179.875793,137.322632 180.748627,135.060410 181.005188,132.538116 
	C181.145996,130.158829 181.896423,127.990738 181.327606,126.254929 
	C177.440079,114.391418 169.794006,105.721733 158.208542,99.789803 
	C158.999069,98.434746 160.008179,97.708595 161.319519,97.135147 
	C163.743500,99.197090 165.865250,101.106323 168.280273,103.182899 
	C176.314148,108.035812 182.413208,114.281410 185.899673,122.685982 
	C188.258789,128.372955 190.058456,134.291992 192.108368,140.107239 
	C192.596527,153.844284 189.235718,166.340347 180.075287,176.902206 
	C178.796310,178.376877 177.122650,179.509247 175.318878,180.900787 
	C175.006088,181.001495 175.041794,181.035980 175.041794,181.035980 
	C175.958984,177.306168 176.877426,173.576645 177.779480,169.843170 
	C177.790924,169.795822 177.577911,169.620880 177.496368,169.637405 
	C177.184906,169.700409 176.884384,169.817459 176.000519,169.792953 
	C173.914230,169.093704 172.407196,168.515854 170.900162,167.937988 
z"/>
<path fill="#989A9D" opacity="1.000000" stroke="none" 
	d="
M131.984314,97.913979 
	C128.512253,99.985695 124.936646,101.903717 121.588272,104.159065 
	C112.889664,110.018127 106.990341,117.967506 103.675186,127.989525 
	C102.525452,131.465302 100.319046,134.591537 98.750954,137.580658 
	C97.326561,137.031036 95.594955,135.833618 95.002052,136.251572 
	C93.976715,136.974335 93.175743,138.681473 93.126839,140.006912 
	C92.925484,145.463348 93.042587,150.931549 93.042587,155.486496 
	C85.725143,144.807785 90.423660,120.166245 103.484093,107.261749 
	C103.965645,108.453941 104.076416,109.395119 104.244080,110.819641 
	C108.044289,107.461761 111.509270,104.400093 115.296242,101.385239 
	C120.481705,99.115868 124.644379,94.952034 130.959991,95.911789 
	C131.489609,96.706940 131.736954,97.310463 131.984314,97.913979 
z"/>
<path fill="#C4C4C4" opacity="1.000000" stroke="none" 
	d="
M162.074631,162.025330 
	C155.487152,169.995346 145.335159,172.588348 134.557770,169.053650 
	C124.550545,165.771561 116.571999,156.334106 115.938271,147.029495 
	C114.904869,131.856735 124.799515,118.042107 138.374832,116.312668 
	C136.567627,117.677429 133.929840,118.261261 132.684479,119.901993 
	C131.123260,121.958862 126.061348,122.641167 129.016174,127.057739 
	C126.092812,128.559067 123.083069,129.999329 123.589600,134.678375 
	C122.838036,135.665039 122.219772,136.128403 122.131844,136.676804 
	C119.896004,150.622208 128.970001,161.588409 140.981369,164.520447 
	C144.654724,165.417145 149.683762,167.434387 153.143112,162.860504 
	C153.143112,162.860504 153.593704,162.945068 153.947968,163.232178 
	C154.863495,163.325714 155.424759,163.132156 155.986008,162.938599 
	C155.986008,162.938599 155.992203,163.000427 156.359894,162.990860 
	C158.509918,162.662628 160.292282,162.343979 162.074631,162.025330 
z"/>
<path fill="#9A9B9C" opacity="1.000000" stroke="none" 
	d="
M104.584152,147.969864 
	C107.230698,155.148712 108.509506,162.637985 114.579948,168.267639 
	C125.959785,178.821136 138.702682,183.273972 153.752869,178.078873 
	C158.222382,176.536057 162.233841,173.666229 166.918671,171.464737 
	C168.054123,171.856064 168.726074,172.187088 169.107895,172.375183 
	C168.366318,173.978882 167.674408,175.475189 166.982483,176.971512 
	C152.431793,187.063477 136.985703,187.307877 121.734047,179.575607 
	C107.516953,172.367813 99.183464,160.422775 97.670959,143.954758 
	C100.081566,145.445129 102.147171,146.722229 104.584152,147.969864 
z"/>
<path fill="#A6A7A8" opacity="1.000000" stroke="none" 
	d="
M129.330322,126.887627 
	C126.061348,122.641167 131.123260,121.958862 132.684479,119.901993 
	C133.929840,118.261261 136.567627,117.677429 138.764420,116.340065 
	C139.269913,116.029030 139.648148,116.099960 139.919479,115.961464 
	C146.692047,112.504539 152.277573,115.925316 158.008041,119.376648 
	C156.488586,121.084282 158.200516,125.344948 152.395538,123.038757 
	C145.219727,120.187981 136.573624,121.363258 129.330322,126.887627 
z"/>
<path fill="#103EA0" opacity="1.000000" stroke="none" 
	d="
M130.677704,95.720161 
	C124.644379,94.952034 120.481705,99.115868 115.311264,101.072891 
	C115.655403,99.096817 116.306526,97.479904 116.957642,95.862991 
	C120.019920,93.901741 123.082207,91.940491 126.884003,89.993896 
	C132.067062,89.703209 136.510590,89.397881 141.347702,89.118767 
	C144.470200,89.886337 147.199142,90.627686 150.181000,91.561249 
	C151.272583,91.850281 152.111252,91.947121 152.935349,92.086761 
	C152.920776,92.129562 152.906677,92.218887 152.929749,92.490768 
	C152.959442,93.128029 152.966049,93.493416 152.661102,93.850479 
	C151.942184,93.758728 151.534821,93.675278 150.753113,93.410583 
	C146.737289,93.116425 143.050156,92.604324 139.468430,93.013893 
	C136.474197,93.356277 133.603241,94.776978 130.677704,95.720161 
z"/>
<path fill="#103FA2" opacity="1.000000" stroke="none" 
	d="
M192.424255,139.833801 
	C190.058456,134.291992 188.258789,128.372955 185.899673,122.685982 
	C182.413208,114.281410 176.314148,108.035812 168.307465,102.841019 
	C169.585678,102.357529 171.550690,101.782547 172.598862,102.516655 
	C176.415878,105.189987 179.909409,108.322319 183.569916,111.224846 
	C184.150040,111.684860 184.961914,111.852608 185.793640,112.517334 
	C186.326385,113.914101 186.689590,114.968170 187.145645,115.980423 
	C188.657043,119.335083 190.201904,122.674667 191.733932,126.020035 
	C192.069351,130.533478 192.404755,135.046906 192.424255,139.833801 
z"/>
<path fill="#9FA0A1" opacity="1.000000" stroke="none" 
	d="
M153.042755,162.497803 
	C149.683762,167.434387 144.654724,165.417145 140.981369,164.520447 
	C128.970001,161.588409 119.896004,150.622208 122.131844,136.676804 
	C122.219772,136.128403 122.838036,135.665039 123.605896,135.080017 
	C124.357147,136.468063 125.138031,137.979233 125.000931,139.401947 
	C123.462006,155.371063 134.689377,162.962189 149.479156,161.436127 
	C150.597626,161.320724 151.786331,161.886154 153.042755,162.497803 
z"/>
<path fill="#45629E" opacity="1.000000" stroke="none" 
	d="
M185.666641,112.155479 
	C184.961914,111.852608 184.150040,111.684860 183.569916,111.224846 
	C179.909409,108.322319 176.415878,105.189987 172.598862,102.516655 
	C171.550690,101.782547 169.585678,102.357529 168.014191,102.673676 
	C165.865250,101.106323 163.743500,99.197090 161.303558,96.889786 
	C160.985382,96.491714 160.994324,95.999786 161.368286,95.978233 
	C165.530762,95.930489 169.319260,95.904297 173.107773,95.878113 
	C173.107773,95.878105 173.010468,95.987129 173.134583,96.198914 
	C173.762024,96.646584 174.265381,96.882469 174.768723,97.118355 
	C174.768723,97.118355 174.903564,97.088234 175.019012,97.356377 
	C175.340042,97.863091 175.598892,98.003479 175.911026,98.045685 
	C179.334595,101.677071 182.758163,105.308464 186.143158,109.661209 
	C185.958603,110.973549 185.812622,111.564514 185.666641,112.155479 
z"/>
<path fill="#9C9D9E" opacity="1.000000" stroke="none" 
	d="
M162.053436,162.011658 
	C160.292282,162.343979 158.509918,162.662628 156.336273,162.970642 
	C156.000534,162.654938 155.946899,162.192719 156.127304,162.067352 
	C164.945908,155.941086 169.392990,147.438690 169.992172,136.389984 
	C170.646194,136.618301 171.846985,137.359512 171.756699,137.874313 
	C170.427032,145.456436 171.364502,153.823792 163.983124,159.839493 
	C162.925888,160.730743 162.472672,161.388000 162.019455,162.045258 
	C162.019455,162.045258 162.032257,161.997986 162.053436,162.011658 
z"/>
<path fill="#717F9C" opacity="1.000000" stroke="none" 
	d="
M172.950897,95.582741 
	C169.319260,95.904297 165.530762,95.930489 161.374329,95.985443 
	C161.006409,96.014206 161.013977,96.031601 161.140930,95.769150 
	C161.448944,95.034592 161.630035,94.562477 161.811127,94.090363 
	C158.842972,93.466537 155.874832,92.842712 152.906677,92.218887 
	C152.906677,92.218887 152.920776,92.129562 153.031311,91.842316 
	C153.614395,91.054634 154.086960,90.554199 154.559525,90.053764 
	C155.465790,90.331879 156.905930,91.116325 157.196213,90.810242 
	C160.296448,87.541359 162.956696,90.032196 165.781219,91.632378 
	C165.967529,91.956863 166.096741,91.904274 166.225952,91.851685 
	C168.415314,92.996910 170.604675,94.142136 172.950897,95.582741 
z"/>
<path fill="#7C869A" opacity="1.000000" stroke="none" 
	d="
M130.959991,95.911789 
	C133.603241,94.776978 136.474197,93.356277 139.468430,93.013893 
	C143.050156,92.604324 146.737289,93.116425 150.589813,93.730423 
	C149.005203,94.516747 147.218048,94.937561 145.411591,95.051300 
	C143.367645,95.179993 140.887955,94.342209 140.941879,97.795448 
	C140.210312,97.836487 139.478729,97.877518 138.274170,97.735931 
	C137.532303,97.688187 137.263428,97.823067 136.994568,97.957939 
	C135.602859,97.962547 134.211151,97.967155 132.401886,97.942871 
	C131.736954,97.310463 131.489609,96.706940 130.959991,95.911789 
M139.590698,95.530701 
	C139.590698,95.530701 139.472885,95.602859 139.590698,95.530701 
z"/>
<path fill="#A6A7A8" opacity="1.000000" stroke="none" 
	d="
M131.211731,105.659576 
	C125.307899,109.620659 119.553734,113.289452 113.460556,117.010620 
	C117.654892,109.207588 125.006264,105.546219 133.727676,103.958359 
	C132.938919,104.427994 132.150146,104.897636 131.211731,105.659576 
z"/>
<path fill="#264DA0" opacity="1.000000" stroke="none" 
	d="
M116.639008,96.012909 
	C116.306526,97.479904 115.655403,99.096817 114.989273,101.026077 
	C111.509270,104.400093 108.044289,107.461761 104.244080,110.819641 
	C104.076416,109.395119 103.965645,108.453941 103.802261,107.148018 
	C103.749641,106.783279 103.776115,106.806091 104.060974,106.741760 
	C104.496750,106.348625 104.647675,106.019829 104.798599,105.691025 
	C104.963287,105.464767 105.149994,105.258415 105.811264,104.908539 
	C106.423157,104.425003 106.582489,104.104889 106.741821,103.784775 
	C106.741821,103.784775 106.998230,103.933456 107.175568,103.809021 
	C107.633842,103.179741 107.914780,102.674896 108.195724,102.170052 
	C110.903938,100.167648 113.612152,98.165237 116.639008,96.012909 
z"/>
<path fill="#7991C3" opacity="1.000000" stroke="none" 
	d="
M185.793640,112.517334 
	C185.812622,111.564514 185.958603,110.973549 186.294815,109.966461 
	C190.126068,114.302185 193.433640,119.171677 191.950867,125.837494 
	C190.201904,122.674667 188.657043,119.335083 187.145645,115.980423 
	C186.689590,114.968170 186.326385,113.914101 185.793640,112.517334 
z"/>
<path fill="#9A9C9E" opacity="1.000000" stroke="none" 
	d="
M141.391998,97.877571 
	C140.887955,94.342209 143.367645,95.179993 145.411591,95.051300 
	C147.218048,94.937561 149.005203,94.516747 150.964172,93.911667 
	C151.534821,93.675278 151.942184,93.758728 152.883881,93.974625 
	C153.576782,94.167587 153.735352,94.228104 153.861938,94.614456 
	C154.537689,96.376251 155.245407,97.812218 155.953125,99.248177 
	C151.249451,98.818680 146.545792,98.389191 141.391998,97.877571 
z"/>
<path fill="#A6A7A8" opacity="1.000000" stroke="none" 
	d="
M167.301590,176.860855 
	C167.674408,175.475189 168.366318,173.978882 169.107895,172.375183 
	C168.726074,172.187088 168.054123,171.856064 167.212769,171.288239 
	C168.143387,170.105118 169.243439,169.158768 170.621826,168.075226 
	C172.407196,168.515854 173.914230,169.093704 175.686951,169.817993 
	C173.175323,172.226349 170.398010,174.488266 167.301590,176.860855 
z"/>
<path fill="#5C73A4" opacity="1.000000" stroke="none" 
	d="
M140.954132,89.092545 
	C136.510590,89.397881 132.067062,89.703209 127.243126,89.924957 
	C131.438721,88.961418 136.014709,88.081459 140.798523,87.841110 
	C140.988937,88.684669 140.971527,88.888611 140.954132,89.092545 
z"/>
<path fill="#5C73A4" opacity="1.000000" stroke="none" 
	d="
M154.519562,89.677948 
	C154.086960,90.554199 153.614395,91.054634 153.045868,91.799515 
	C152.111252,91.947121 151.272583,91.850281 150.160690,91.174210 
	C147.939911,89.443115 145.992355,88.291275 144.044800,87.139435 
	C146.819656,87.189568 149.608704,87.100151 152.360168,87.380157 
	C153.123932,87.457870 153.776169,88.631371 154.519562,89.677948 
z"/>
<path fill="#717F9C" opacity="1.000000" stroke="none" 
	d="
M156.154755,99.439301 
	C155.245407,97.812218 154.537689,96.376251 154.235611,94.554649 
	C156.765488,94.789879 158.889740,95.410744 161.013977,96.031601 
	C161.013977,96.031601 161.006409,96.014206 161.000366,96.006996 
	C160.994324,95.999786 160.985382,96.491714 161.001343,96.737076 
	C160.008179,97.708595 158.999069,98.434746 157.989166,99.526627 
	C157.444366,99.805038 156.900360,99.717728 156.154755,99.439301 
z"/>
<path fill="#717F9C" opacity="1.000000" stroke="none" 
	d="
M143.727798,87.106628 
	C145.992355,88.291275 147.939911,89.443115 149.907776,90.982002 
	C147.199142,90.627686 144.470200,89.886337 141.347702,89.118767 
	C140.971527,88.888611 140.988937,88.684669 141.036774,88.175323 
	C141.848373,87.604561 142.629593,87.339195 143.727798,87.106628 
z"/>
<path fill="#9C9D9E" opacity="1.000000" stroke="none" 
	d="
M169.606506,132.051422 
	C170.127365,132.884628 170.403610,133.919342 170.371704,134.975769 
	C169.829666,134.082626 169.595779,133.167755 169.606506,132.051422 
z"/>
<path fill="#9C9D9E" opacity="1.000000" stroke="none" 
	d="
M155.668350,162.819656 
	C155.424759,163.132156 154.863495,163.325714 154.172028,163.280640 
	C154.478088,162.928238 154.914398,162.814484 155.668350,162.819656 
z"/>
<path fill="#A6A7A8" opacity="1.000000" stroke="none" 
	d="
M160.201401,119.905083 
	C160.122040,119.448181 160.319489,119.065895 160.516937,118.683609 
	C160.658737,118.938591 160.800552,119.193573 160.994446,119.676186 
	C160.857101,119.929108 160.667648,119.954407 160.201401,119.905083 
z"/>
<path fill="#989A9D" opacity="1.000000" stroke="none" 
	d="
M107.905441,102.231812 
	C107.914780,102.674896 107.633842,103.179741 107.053726,103.724289 
	C107.041420,103.273849 107.328293,102.783707 107.905441,102.231812 
z"/>
<path fill="#717F9C" opacity="1.000000" stroke="none" 
	d="
M174.668564,96.850136 
	C174.265381,96.882469 173.762024,96.646584 173.170654,96.135376 
	C173.577896,96.100685 174.073151,96.341301 174.668564,96.850136 
z"/>
<path fill="#9A9C9E" opacity="1.000000" stroke="none" 
	d="
M174.990662,180.982056 
	C174.854156,181.171799 174.733078,181.380966 174.612000,181.590134 
	C174.627289,181.404297 174.642593,181.218460 174.849838,181.034302 
	C175.041794,181.035980 175.006088,181.001495 174.990662,180.982056 
z"/>
<path fill="#989A9D" opacity="1.000000" stroke="none" 
	d="
M104.540665,105.778282 
	C104.647675,106.019829 104.496750,106.348625 104.066795,106.728256 
	C103.952751,106.474571 104.117737,106.170052 104.540665,105.778282 
z"/>
<path fill="#989A9D" opacity="1.000000" stroke="none" 
	d="
M106.484787,103.853256 
	C106.582489,104.104889 106.423157,104.425003 105.975876,104.779755 
	C105.867867,104.516846 106.047813,104.219292 106.484787,103.853256 
z"/>
<path fill="#717F9C" opacity="1.000000" stroke="none" 
	d="
M175.844223,97.811569 
	C175.598892,98.003479 175.340042,97.863091 175.034973,97.423592 
	C175.301834,97.137474 175.582489,97.255737 175.844223,97.811569 
z"/>
<path fill="#9A9C9E" opacity="1.000000" stroke="none" 
	d="
M137.256409,97.991005 
	C137.263428,97.823067 137.532303,97.688187 137.908752,97.701355 
	C137.850311,97.907623 137.684280,97.965851 137.256409,97.991005 
z"/>
<path fill="#C4C4C4" opacity="1.000000" stroke="none" 
	d="
M162.309326,161.953812 
	C162.472672,161.388000 162.925888,160.730743 163.714905,160.036087 
	C163.566879,160.619919 163.083038,161.241135 162.309326,161.953812 
z"/>
<path fill="#264DA0" opacity="1.000000" stroke="none" 
	d="
M161.140930,95.769157 
	C158.889740,95.410744 156.765488,94.789879 154.267578,94.228821 
	C153.735352,94.228104 153.576782,94.167587 153.195435,93.982933 
	C152.966049,93.493416 152.959442,93.128029 152.929749,92.490768 
	C155.874832,92.842712 158.842972,93.466537 161.811127,94.090363 
	C161.630035,94.562477 161.448944,95.034592 161.140930,95.769157 
z"/>
<path fill="#45629E" opacity="1.000000" stroke="none" 
	d="
M166.170181,91.885262 
	C166.096741,91.904274 165.967529,91.956863 165.991409,91.900803 
	C166.144501,91.792160 166.114410,91.918831 166.170181,91.885262 
z"/>
<path fill="#9A9C9E" opacity="1.000000" stroke="none" 
	d="
M139.531799,95.566780 
	C139.472885,95.602859 139.590698,95.530701 139.531799,95.566780 
z"/>
</svg>